<svg xmlns="http://www.w3.org/2000/svg" viewBox="0 0 57.9 72.55"><defs><style>.cls-1{fill:#fff;}</style></defs><g id="Layer_2" data-name="Layer 2"><g id="Layer_1-2" data-name="Layer 1"><path d="M57.83,32.43c-.25-.93-.84-2.35-2.17-2.64a2.24,2.24,0,0,0-2.48,1.3l-7.7,17.16-.14,14.41L51.92,47.5l5.8-13.6a2.25,2.25,0,0,0,.11-1.47m-.76,1.92L52,46.27l-5.7,13.28,0-12.62,6.76-15a2,2,0,0,1,2.18-1.14c1.16.25,1.68,1.5,1.89,2.31a2,2,0,0,1-.09,1.29"/><path d="M48.09,18.55H43.63a.15.15,0,0,1-.12-.07,17.13,17.13,0,0,0-6.32-5.77.13.13,0,0,1-.08-.13l.11-2.82a.15.15,0,0,1,.07-.13c.41-.22.42-.85.41-1.05a.14.14,0,0,0-.05-.1l-1.9-1.59a.11.11,0,0,1,0-.09l-.16-1.31a.08.08,0,0,0,0,0l-.86-2,0,0a1.7,1.7,0,0,1-.08-2.13.13.13,0,0,0-.06-.2,13.87,13.87,0,0,0-10-.28h0c-8.6,5-2.27,12.21-2,12.54,0,0,0,0,0,0l.06.1a.13.13,0,0,1-.07.19c-1.85.8-4.46,4.34-4.82,4.84a.17.17,0,0,1-.12,0h-4.3A4.93,4.93,0,0,0,9,20.9a3.45,3.45,0,0,0-.11,3.62A4.83,4.83,0,0,0,13.23,27h2a.14.14,0,0,1,.14.14V42.6a.14.14,0,0,1-.18.14.16.16,0,0,1-.09-.07L7.64,27.6s0-.05-.06-.06l-.52-.31a.14.14,0,0,0-.21.12l0,.55a.07.07,0,0,0,0,.06l5.22,13.3a.14.14,0,0,1-.22.16L.23,32.28a.14.14,0,0,0-.23.13L.08,33a.12.12,0,0,0,0,.08L6.66,39.8l7.77,7.78,0,0,1,2.25a.13.13,0,0,1,0,.06v6.42a15.26,15.26,0,0,0,2.18,7,.07.07,0,0,1,0,.06l0,.46a.24.24,0,0,1,0,.08c-3,5.77,1.84,7.25,2.16,7.34h0a4,4,0,0,0,3.52-2.16.15.15,0,0,1,.2,0c7.08,4.59,14.49.22,16-.75a.14.14,0,0,1,.22.14,5.56,5.56,0,0,0,.47,3.64v0c.8.89,1.26.12,1.36-.08a.14.14,0,0,0,0-.09c-.7-4.43.91-5.28,1.21-5.4a.17.17,0,0,1,.1,0c3,1,2.62-1.52,2.58-1.76,0,0,0,0,0,0L45,63.48a.13.13,0,0,1,0-.12l.67-1.26a.14.14,0,0,0,0-.06v-.82l.15-34A.14.14,0,0,1,46,27H48.1a5,5,0,0,0,4.12-2.1,3.45,3.45,0,0,0,.27-3.79,4.93,4.93,0,0,0-4.4-2.6M34,17.4l1-.89a.11.11,0,0,1,.08,0c1.39-.18,1.69-.88,1.74-1a.16.16,0,0,1,0-.07l.14-.69s.37.23.41.23c1,.1,3.14,2.7,3.75,3.49a.14.14,0,0,1-.11.23H34.09a.14.14,0,0,1-.14-.14v-1a.15.15,0,0,1,0-.11M24.4,14.6c1.23.34,1.57,2.31,1.59,2.47v1.42a.14.14,0,0,1-.14.14H20.23a.15.15,0,0,1-.14-.19c.58-1.52,3.76-3.54,4.2-3.82a.14.14,0,0,1,.11,0M20.77,70.29c-.32-.05-4.49-.74-2.45-5.52a.14.14,0,0,1,.24,0c.52.68,2.33,3,4,3.62a.15.15,0,0,1,.09.18c-.15.41-.67,1.64-1.85,1.75h0m20.44,1.27c.22,1.07-.57.15-.57.15-.86-.8-.51-3.59-.45-4a.09.09,0,0,1,0-.08l.79-.79a.14.14,0,0,1,.23.15,6.71,6.71,0,0,0,0,4.55m-1-6.43h0A13.31,13.31,0,0,1,31,69.08s-6.28,0-9.41-3.84h0c-.15-.15-4.35-4.24-4.23-8.76l-.24-29.35a.15.15,0,0,1,.14-.15h4.67a.15.15,0,0,1,.14.14V52.68c0,.62,0,1.23.09,1.84a4.21,4.21,0,0,0,.09.49,12.7,12.7,0,0,0,.6,1.7v0c.19.3,5.51,8.75,13.08,2.46a10,10,0,0,0,1.5-1.86,9,9,0,0,0,.92-1.59v0l.07-.21a6,6,0,0,0,.32-1.92V27.11a.14.14,0,0,1,.14-.14h5.16a.14.14,0,0,1,.14.14V55.36a14.54,14.54,0,0,1-1.26,6,10.44,10.44,0,0,1-2.77,3.78m3.41-.5a.29.29,0,0,1,0-.09V64.1l.09,0,.24.09.12.08a.13.13,0,0,1,0,.07,2,2,0,0,1,.07.3s0,.11,0,.19a.14.14,0,0,1-.15.12h-.18l-.2-.26m1.36.09.08.55a0,0,0,0,1,0,0l-.12.65a.13.13,0,0,1-.06.1l-.17.11-.08,0h-.15a.15.15,0,0,1-.12-.07l-.26-.42s0,0,0,0L44,65.3a.15.15,0,0,1,.06-.16l.18-.1a.14.14,0,0,0,.07-.11,1.3,1.3,0,0,0-.48-1.29.14.14,0,0,1-.07-.14c0-.18.14-.52.45-.52a.14.14,0,0,1,.12.09l.65,1.62a0,0,0,0,1,0,0"/><polygon points="21.56 56.07 20.14 56.33 20.41 57.82 21.83 57.56 21.95 58.21 18.42 58.85 18.3 58.21 19.86 57.92 19.58 56.43 18.03 56.72 17.91 56.07 21.44 55.43 21.56 56.07"/><path class="cls-1" d="M18.4,58.88l-.13-.69,1.55-.29-.26-1.44L18,56.75l-.13-.7,3.58-.65.13.7-1.42.25.27,1.44,1.41-.26.12.7Zm-.07-.65.11.59,3.47-.63-.1-.59-1.42.25-.28-1.54,1.41-.26-.1-.59-3.48.63.11.6,1.55-.29L19.89,58Z"/><path d="M20.61,61l-1,.31-.38-.56,3.62-1,.46.7-2.33,3-.39-.59.66-.83Zm1,.58.58-.72c.14-.18.31-.37.46-.53h0l-.65.23-.89.26Z"/><path class="cls-1" d="M21,63.38l-.42-.63.66-.83L20.6,61l-1,.31-.4-.61,3.67-1.05.49.73h0Zm-.36-.63.36.54,2.3-2.91-.44-.67-3.57,1,.35.52,1-.31.66,1Zm1-1.15L21,60.77,22,60.5l.44-.15.21-.08h0l0,.05-.09.1-.38.43Zm-.47-.8.47.71.56-.7a5.3,5.3,0,0,1,.38-.43l0,0-.14,0-.43.15Z"/><rect x="22.1" y="63.01" width="3.58" height="0.65" transform="translate(-41 44.08) rotate(-52.8)"/><path class="cls-1" d="M23.08,65l-.56-.43v0l2.18-2.88.57.43,0,0Zm-.49-.44.48.36,2.13-2.81-.47-.36Z"/><path d="M26.08,62.83a5.44,5.44,0,0,1,.93.34,1.61,1.61,0,0,1,.89.72.89.89,0,0,1,0,.78,1,1,0,0,1-1,.55h0a.9.9,0,0,1,.17.84,7.42,7.42,0,0,0-.15,1l-.62-.28a5.82,5.82,0,0,1,.13-.86c.11-.47,0-.68-.32-.84l-.3-.14-.61,1.34L24.62,66ZM26,64.54l.35.16a.63.63,0,0,0,.9-.24c.16-.36,0-.64-.4-.82a1.86,1.86,0,0,0-.39-.13Z"/><path class="cls-1" d="M27,67.14l-.67-.31h0a4.47,4.47,0,0,1,.13-.88c.09-.44,0-.65-.31-.81L25.83,65l-.61,1.34-.64-.29,1.49-3.27h0a7.22,7.22,0,0,1,.93.34,1.65,1.65,0,0,1,.9.73,1,1,0,0,1,0,.81,1,1,0,0,1-.95.57.92.92,0,0,1,.15.82l0,.19a5.12,5.12,0,0,0-.12.83Zm-.62-.34.56.25a7.09,7.09,0,0,1,.12-.8l0-.19a.89.89,0,0,0-.16-.81h0l0,0h0a1,1,0,0,0,.94-.53.92.92,0,0,0,0-.76,1.61,1.61,0,0,0-.88-.71,6.4,6.4,0,0,0-.91-.33L24.65,66l.55.25.6-1.34.33.14c.35.18.44.4.34.87a6.07,6.07,0,0,0-.13.85m.41-2a1,1,0,0,1-.39-.09L26,64.55l.49-1.07h0a1.64,1.64,0,0,1,.39.14.88.88,0,0,1,.42.35.58.58,0,0,1,0,.5.57.57,0,0,1-.54.34m-.7-.29.33.15a.59.59,0,0,0,.86-.22.5.5,0,0,0,0-.46.84.84,0,0,0-.4-.32,1.6,1.6,0,0,0-.35-.13Z"/><path d="M30.62,66.82a1.79,1.79,0,0,0,.88.18c.42,0,.64-.22.63-.51s-.2-.43-.67-.57-1-.48-1-1,.44-1.05,1.22-1.09a1.94,1.94,0,0,1,.87.15l-.14.53a1.61,1.61,0,0,0-.72-.14c-.41,0-.58.25-.57.46s.22.39.71.56,1,.5,1,1-.39,1.09-1.31,1.13a2.07,2.07,0,0,1-1-.18Z"/><path class="cls-1" d="M31.38,67.57a2.2,2.2,0,0,1-.89-.18h0l.13-.6h0a1.85,1.85,0,0,0,.87.19.79.79,0,0,0,.46-.15.4.4,0,0,0,.14-.34c0-.26-.18-.4-.64-.54-.68-.21-1-.55-1-1s.49-1.08,1.25-1.11a2,2,0,0,1,.88.14h0l-.15.59,0,0a1.55,1.55,0,0,0-.71-.13.69.69,0,0,0-.43.15.38.38,0,0,0-.12.28c0,.26.22.37.7.53.66.22,1,.54,1,1a1,1,0,0,1-.31.78,1.55,1.55,0,0,1-1,.38h-.1m-.85-.22a2.24,2.24,0,0,0,.95.17,1.53,1.53,0,0,0,1-.36,1,1,0,0,0,.29-.75c0-.49-.3-.79-.95-1-.49-.16-.72-.29-.73-.58a.38.38,0,0,1,.14-.32.64.64,0,0,1,.46-.16,1.46,1.46,0,0,1,.7.12l.13-.48a1.9,1.9,0,0,0-.84-.13c-.73,0-1.22.47-1.19,1.06s.33.77,1,1c.49.16.67.32.69.6a.47.47,0,0,1-.17.38.77.77,0,0,1-.49.16,1.8,1.8,0,0,1-.86-.18Z"/><polygon points="34.3 63.9 33.36 64.28 33.15 63.77 35.66 62.76 35.87 63.27 34.91 63.65 36.05 66.47 35.44 66.71 34.3 63.9"/><path class="cls-1" d="M35.43,66.75v0l-1.13-2.79-.95.38-.22-.55h0l2.54-1,.22.56-1,.39,1.14,2.81Zm-1.11-2.89v0l1.12,2.79.56-.23-1.13-2.81.95-.39-.18-.46-2.46,1,.18.46Z"/><path d="M39.18,64.42l-1-1.09-2.25-.76.54-.5.95.37.71.31h0c-.09-.23-.17-.47-.26-.74l-.32-1,.54-.5.55,2.33,1,1.1Z"/><path class="cls-1" d="M39.18,64.46l-1-1.11-2.29-.76.59-.55,1,.38.66.29q-.14-.36-.24-.69l-.32-1,.59-.55.55,2.37L39.7,64ZM36,62.56l2.22.75,1,1.07.43-.41-1-1.09h0l-.53-2.28-.5.46.31,1c.08.24.16.49.26.74h0l0,0h0c-.23-.11-.43-.2-.71-.31l-.93-.37Z"/><polygon points="38.31 60.03 38.6 59.45 41.31 60.8 41.97 59.49 42.46 59.73 41.51 61.63 38.31 60.03"/><path class="cls-1" d="M41.52,61.67,38.27,60l.32-.63h0l2.69,1.35L42,59.45l.54.27v0ZM38.34,60,41.5,61.6l.93-1.86L42,59.52l-.66,1.32-2.72-1.36Z"/><polygon points="41.83 55.91 41.69 57.26 42.73 57.37 42.89 55.87 43.43 55.92 43.2 58.07 39.63 57.69 39.85 55.62 40.39 55.68 40.24 57.1 41.16 57.2 41.3 55.86 41.83 55.91"/><path class="cls-1" d="M43.22,58.1l-3.61-.38.22-2.13.59.07-.15,1.42.86.09.15-1.34.58.06-.14,1.34,1,.11.16-1.5.59.06Zm-3.56-.43,3.51.38L43.4,56l-.48-.06-.16,1.51-1.1-.12.14-1.34-.48,0-.14,1.34-1-.1.15-1.43-.48-.05Z"/><path class="cls-1" d="M25.43,41s-.6-6.3,4.35-9.21a5.09,5.09,0,0,1,4.09-.81s2.88.61-.37,7.24c0,0-1.4,2.53-2.44,2.78a48.37,48.37,0,0,1,1.43-6.69,1.88,1.88,0,0,0-2.05-2.48h-.07s-2.9,9-2.88,14.33v.57a2.31,2.31,0,0,0,2.74,1.87l.17-4.36s2.07-1.92,3.08-1.38a3.57,3.57,0,0,1-.5,3.3,7.25,7.25,0,0,1-6.69,4l.05.59s.49,1.43,3,1.33h1.32A8.18,8.18,0,0,0,36,46.67a6.71,6.71,0,0,0,.16-2.21,7.48,7.48,0,0,1-.13-1c-.06-.65-.47-1.67-2.35-2.09,0,0,4.13-4.58,3.91-7.24,0-.1,0-.23,0-.33l0-.67A4.63,4.63,0,0,0,37.06,31a3.7,3.7,0,0,0-2.91-2H32.07s-4.43.13-7.92,5.37a9.94,9.94,0,0,0-1.33,3.82v1.7a1.11,1.11,0,0,0,.81,1Z"/><path class="cls-1" d="M17.74,20.54a5.91,5.91,0,0,1,1.16-.09,2.05,2.05,0,0,1,1.25.28.9.9,0,0,1,.46.81,1,1,0,0,1-.73.95h0a1.11,1.11,0,0,1,.88,1.09,1.14,1.14,0,0,1-.42.9,2.43,2.43,0,0,1-1.62.41,7,7,0,0,1-1-.06Zm.79,1.72h.41c.55,0,.86-.26.86-.63S19.49,21,19,21a2.13,2.13,0,0,0-.45,0Zm0,2,.42,0c.51,0,1-.2,1-.74s-.44-.71-1-.71h-.4Z"/><path class="cls-1" d="M24.13,23.62l-.38,1.24h-.82l1.4-4.38h1l1.42,4.38h-.86l-.39-1.24ZM25.38,23,25,21.93c-.09-.26-.16-.56-.22-.81h0c-.06.25-.13.55-.21.81L24.26,23Z"/><path class="cls-1" d="M29.15,24a2.33,2.33,0,0,0,1.06.27c.52,0,.8-.24.8-.59s-.22-.53-.78-.73c-.72-.26-1.18-.64-1.18-1.27s.6-1.26,1.55-1.26a2.28,2.28,0,0,1,1,.22l-.2.64a1.88,1.88,0,0,0-.87-.21c-.5,0-.73.28-.73.53s.26.49.84.72c.76.29,1.13.67,1.13,1.3s-.53,1.31-1.66,1.31A2.63,2.63,0,0,1,29,24.65Z"/><polygon class="cls-1" points="36.78 22.91 35.13 22.91 35.13 24.2 36.98 24.2 36.98 24.86 34.34 24.86 34.34 20.48 36.88 20.48 36.88 21.13 35.13 21.13 35.13 22.27 36.78 22.27 36.78 22.91"/><path class="cls-1" d="M43.17,23.07c0-.57-.06-1.25-.05-1.84h0c-.15.53-.33,1.13-.52,1.68l-.64,1.89h-.62l-.58-1.87c-.17-.56-.33-1.15-.44-1.7h0c0,.57,0,1.27-.08,1.87l-.1,1.76h-.75l.3-4.38h1.05l.57,1.76c.15.51.29,1,.4,1.52h0c.12-.48.27-1,.44-1.53l.6-1.75h1L44,24.86h-.78Z"/></g></g></svg>