<svg xmlns="http://www.w3.org/2000/svg" width="6.653" height="6.87" viewBox="0 0 6.653 6.87">
  <path id="facebook_logo" data-name="facebook logo" d="M265.67,1397.82a3.44,3.44,0,0,0,0,6.87h.14v-2.09c0-.07,0-.07-.06-.07H265v-.82h0a.1.1,0,0,1,.07,0h.68a.08.08,0,0,0,0-.07v-.66a1.149,1.149,0,0,1,0-.26v-.12h0v-.09h0a.886.886,0,0,1,.08-.11c.03-.03.06-.09.11-.12h0s.05-.06.09,0a1.5,1.5,0,0,1,.26-.12,1.132,1.132,0,0,1,.36-.06h.76v.84h-.56a.34.34,0,0,0-.35.35v.55c0,.06,0,.06.07.06h.74c.06,0,.07,0,.07.06h0a.191.191,0,0,0,0,.08h0a.151.151,0,0,0,0,.07.45.45,0,0,1,0,.16h0v.06h0v.34c0,.09,0,0-.05,0h-.68v1.98a3.42,3.42,0,0,0-1-6.69" transform="translate(-262.415 -1397.82)" fill="#fff"/>
</svg>
