<svg xmlns="http://www.w3.org/2000/svg" width="6.86" height="6.86" viewBox="0 0 6.86 6.86">
  <g id="instagram_logo" data-name="instagram logo" transform="translate(-385.23 -1460.74)">
    <path id="Path_14063" data-name="Path 14063" d="M266.54,1376.92h-1.43A1.1,1.1,0,0,0,264,1378v1.38a1.09,1.09,0,0,0,1.07,1.09h1.58a1.09,1.09,0,0,0,.91-1.09V1378a1.09,1.09,0,0,0-1.06-1.09m-.66,2.95a1.17,1.17,0,1,1,1.16-1.17,1.17,1.17,0,0,1-1.16,1.17m1.08-2a.31.31,0,0,1-.3-.29.3.3,0,1,1,.3.3" transform="translate(122.84 85.41)" fill="#fff"/>
    <path id="Path_14064" data-name="Path 14064" d="M265.88,1378a.71.71,0,0,0-.7.7.7.7,0,0,0,1.4,0,.71.71,0,0,0-.7-.71" transform="translate(122.84 85.41)" fill="#fff"/>
    <path id="Path_14065" data-name="Path 14065" d="M265.82,1375.33a3.43,3.43,0,1,0,3.43,3.43,3.43,3.43,0,0,0-3.43-3.43m2.2,4.31a1.34,1.34,0,0,1-1.29,1.26h-1.88a1.36,1.36,0,0,1-1.24-1.22,1.088,1.088,0,0,1,0-.18v-1.65a1.35,1.35,0,0,1,1.35-1.36h1.72a1.36,1.36,0,0,1,1.35,1.37v1.78" transform="translate(122.84 85.41)" fill="#fff"/>
  </g>
</svg>
