<svg xmlns="http://www.w3.org/2000/svg" width="57.877" height="72.367" viewBox="0 0 57.877 72.367">
  <g id="logo" transform="translate(-191.088 -157.733)">
    <g id="logo-2" data-name="logo" transform="translate(-58 50)">
      <path id="Path_13987" data-name="Path 13987" d="M184.05,54.67c-.25-.93-.84-2.35-2.16-2.64a2.25,2.25,0,0,0-2.49,1.3l-7.7,17.16-.14,14.41,6.58-15.16,5.8-13.6a2.25,2.25,0,0,0,.11-1.47m-.76,1.92L178.2,68.51l-5.7,13.28.06-12.61,6.75-15.05A2,2,0,0,1,181.49,53c1.16.25,1.68,1.5,1.89,2.31a2,2,0,0,1-.09,1.29" transform="translate(122.84 85.41)"/>
      <path id="Path_13988" data-name="Path 13988" d="M174.31,40.79h-4.46a.15.15,0,0,1-.12-.07A17.06,17.06,0,0,0,163.41,35a.13.13,0,0,1-.08-.13l.11-2.82a.15.15,0,0,1,.07-.13c.41-.22.42-.85.41-1.05a.14.14,0,0,0,0-.1L162,29.13a.11.11,0,0,1-.05-.09l-.16-1.31-.86-2h0a1.69,1.69,0,0,1-.09-2.13.14.14,0,0,0-.05-.2,13.89,13.89,0,0,0-10-.28h0c-8.6,5-2.27,12.21-2,12.54h0l.05.1a.13.13,0,0,1-.07.19c-1.85.8-4.46,4.34-4.82,4.84a.16.16,0,0,1-.11,0h-4.31a4.93,4.93,0,0,0-4.21,2.32,3.48,3.48,0,0,0-.11,3.62,4.83,4.83,0,0,0,4.3,2.52h2a.14.14,0,0,1,.14.14V64.84a.14.14,0,0,1-.18.14.16.16,0,0,1-.09-.07l-7.5-15.07a.09.09,0,0,0-.06-.06l-.52-.31a.14.14,0,0,0-.21.12v.55a.13.13,0,0,0,0,.06l5.22,13.3a.14.14,0,0,1-.21.16l-11.62-9.14a.14.14,0,0,0-.23.13l.08.55a.12.12,0,0,0,0,.08L132.88,62l7.77,7.78h0l1,2.25a.13.13,0,0,1,0,.06v6.42a15.26,15.26,0,0,0,2.18,7,.07.07,0,0,1,0,.06v.46a.24.24,0,0,1,0,.08c-3,5.77,1.84,7.25,2.16,7.34h0a4,4,0,0,0,3.51-2.16.15.15,0,0,1,.2-.05c7.08,4.59,14.49.22,16-.75a.14.14,0,0,1,.22.14,5.56,5.56,0,0,0,.47,3.64h0c.8.89,1.26.12,1.36-.08a.14.14,0,0,0,0-.09c-.7-4.43.91-5.28,1.22-5.4h.09c3,1,2.62-1.52,2.58-1.76l-.59-1.29a.13.13,0,0,1,0-.12l.67-1.26a.14.14,0,0,0,0-.06v-.82l.15-34a.14.14,0,0,1,.14-.14h2.15a5,5,0,0,0,4.12-2.1,3.45,3.45,0,0,0,.27-3.79,4.93,4.93,0,0,0-4.4-2.6m-14.1-1.15,1-.89a.11.11,0,0,1,.08,0c1.4-.18,1.69-.88,1.74-1a.16.16,0,0,1,0-.07l.14-.69a3.756,3.756,0,0,0,.41.23c1.05.1,3.14,2.7,3.75,3.49a.14.14,0,0,1-.11.23h-6.93a.14.14,0,0,1-.14-.14v-1a.15.15,0,0,1,0-.11m-9.59-2.8c1.23.34,1.57,2.31,1.59,2.47v1.42a.14.14,0,0,1-.14.14h-5.62a.15.15,0,0,1-.14-.19c.58-1.52,3.76-3.54,4.2-3.82a.15.15,0,0,1,.11,0M147,92.53c-.32,0-4.49-.74-2.45-5.52a.15.15,0,0,1,.25,0c.51.68,2.32,3,4,3.62a.15.15,0,0,1,.09.18c-.15.41-.67,1.64-1.85,1.75h0m20.44,1.27c.22,1.07-.57.15-.57.15-.86-.8-.51-3.59-.45-4a.12.12,0,0,1,0-.08l.79-.79a.14.14,0,0,1,.23.15,6.71,6.71,0,0,0,0,4.55m-1-6.43h0a13.31,13.31,0,0,1-9.15,3.94s-6.28,0-9.4-3.84h0c-.16-.15-4.36-4.24-4.23-8.76l-.25-29.35a.15.15,0,0,1,.14-.15h4.67a.14.14,0,0,1,.14.14V74.92a12.534,12.534,0,0,0,.09,1.84,4.213,4.213,0,0,0,.09.49,12.7,12.7,0,0,0,.6,1.7h0c.19.3,5.51,8.75,13.08,2.46a10,10,0,0,0,1.5-1.86,8.419,8.419,0,0,0,.92-1.59h0l.08-.21a6.27,6.27,0,0,0,.31-1.92V49.35a.15.15,0,0,1,.14-.14h5.16a.14.14,0,0,1,.14.14V77.6a14.54,14.54,0,0,1-1.26,6,10.44,10.44,0,0,1-2.77,3.78m3.41-.5a.29.29,0,0,1,0-.09v-.44h.1l.23.09.12.08a.13.13,0,0,1,0,.07,2.32,2.32,0,0,1,.08.3s0,.11,0,.19a.13.13,0,0,1-.15.12H170l-.2-.26m1.36.09.08.55-.12.65a.13.13,0,0,1-.06.1l-.17.11h-.23a.15.15,0,0,1-.12-.07L170.3,88l-.1-.37a.15.15,0,0,1,.06-.16l.18-.1a.14.14,0,0,0,.07-.11,1.3,1.3,0,0,0-.48-1.29.14.14,0,0,1-.07-.14c0-.18.14-.52.45-.52a.14.14,0,0,1,.12.09l.66,1.62h0" transform="translate(122.84 85.41)"/>
    </g>
    <path id="Path_13989" data-name="Path 13989" d="M270.62,163.72l-1.42.26.27,1.49,1.42-.25.11.64-3.52.64-.12-.64,1.55-.29-.27-1.49-1.55.29-.12-.65,3.53-.64Z" transform="translate(-58 50)"/>
    <path id="Path_13990" data-name="Path 13990" d="M144.62,81.12l-.13-.69,1.55-.29-.26-1.44-1.55.29-.13-.7,3.58-.65.13.7-1.42.25.27,1.44,1.41-.26.13.7Zm-.07-.65.11.59,3.47-.63-.1-.59-1.42.25-.28-1.54,1.42-.26-.11-.59-3.48.63.11.6,1.56-.29.28,1.55Z" transform="translate(64.84 135.41)"/>
    <path id="Path_13991" data-name="Path 13991" d="M146.83,83.21l-1,.31-.38-.56,3.62-1,.46.7-2.33,3-.4-.66.66-.83Zm1,.58.58-.72c.14-.18.32-.37.46-.53h0l-.65.23-.89.26Z" transform="translate(64.84 135.41)"/>
    <path id="Path_13992" data-name="Path 13992" d="M147.19,85.62l-.42-.63.66-.83-.61-.92-1,.31-.41-.61,3.67-1,.49.73h0Zm-.36-.63.36.54,2.3-2.91-.44-.67-3.57,1,.35.52,1-.31.66,1Zm1-1.15-.55-.83.92-.27.44-.15.21-.08h0l-.09.1-.38.43Zm-.46-.8.47.71.55-.7c.12-.15.26-.3.38-.43h-.13l-.44.15Z" transform="translate(64.84 135.41)"/>
    <rect id="Rectangle_17513" data-name="Rectangle 17513" width="3.58" height="0.65" transform="translate(213.614 222.213) rotate(-52.8)"/>
    <path id="Path_13993" data-name="Path 13993" d="M152.3,85.07a5.439,5.439,0,0,1,.93.34,1.61,1.61,0,0,1,.89.72.89.89,0,0,1,0,.78,1,1,0,0,1-1,.55h0a.9.9,0,0,1,.16.84,7.421,7.421,0,0,0-.15,1l-.62-.27a5.131,5.131,0,0,1,.14-.87c.1-.47,0-.68-.33-.84l-.3-.14-.61,1.34-.59-.26Zm-.06,1.71.35.16a.63.63,0,0,0,.9-.24c.16-.36,0-.64-.4-.82a1.859,1.859,0,0,0-.39-.13Z" transform="translate(64.84 135.41)"/>
    <path id="Path_13994" data-name="Path 13994" d="M153.18,89.38l-.67-.31h0a4.47,4.47,0,0,1,.13-.88c.1-.44,0-.65-.31-.81l-.28-.12-.61,1.34-.64-.29L152.29,85h0a7.22,7.22,0,0,1,.93.34,1.66,1.66,0,0,1,.9.74.93.93,0,0,1,0,.8,1,1,0,0,1-.94.57,1,1,0,0,1,.14.82v.2a6.924,6.924,0,0,0-.13.82Zm-.62-.34.56.25a6.681,6.681,0,0,1,.12-.79v-.2a.89.89,0,0,0-.16-.81h0a.93.93,0,0,0,.94-.53.88.88,0,0,0,0-.76,1.66,1.66,0,0,0-.88-.71,6.3,6.3,0,0,0-.9-.33l-1.45,3.17.55.25.61-1.34.32.15c.35.17.44.4.34.86a6.291,6.291,0,0,0-.13.85m.41-2a1,1,0,0,1-.39-.1l-.38-.17.49-1.07h0a2.4,2.4,0,0,1,.39.14.88.88,0,0,1,.42.35.55.55,0,0,1,0,.5.56.56,0,0,1-.54.35m-.7-.3.33.15a.59.59,0,0,0,.86-.22.48.48,0,0,0,0-.45.82.82,0,0,0-.39-.33,1.8,1.8,0,0,0-.36-.13Z" transform="translate(64.84 135.41)"/>
    <path id="Path_13995" data-name="Path 13995" d="M156.84,89.06a1.79,1.79,0,0,0,.88.18c.42,0,.64-.22.63-.51s-.2-.43-.66-.57-1-.48-1-1,.44-1,1.22-1.09a1.94,1.94,0,0,1,.87.15l-.14.53a1.61,1.61,0,0,0-.72-.14c-.41,0-.58.25-.57.46s.22.39.71.56,1,.5,1,1a1.207,1.207,0,0,1-1.31,1.13,2.09,2.09,0,0,1-1-.18Z" transform="translate(64.84 135.41)"/>
    <path id="Path_13996" data-name="Path 13996" d="M283.36,171.55l-.94.38-.21-.51,2.51-1.01.21.51-.96.38,1.14,2.82-.61.24Z" transform="translate(-58 50)"/>
    <path id="Path_13997" data-name="Path 13997" d="M165.41,86.66l-1-1.09-2.25-.76.54-.5,1,.37.71.31h0c-.09-.23-.17-.47-.26-.74l-.32-1,.54-.5.55,2.33,1,1.1Z" transform="translate(64.84 135.41)"/>
    <path id="Path_13998" data-name="Path 13998" d="M165.4,86.7l-1-1.11-2.29-.76.59-.55,1,.38.66.29q-.14-.36-.24-.69l-.32-1,.59-.55.56,2.37,1,1.11Zm-3.22-1.9,2.22.75,1,1.07.44-.41-1-1.09h0l-.54-2.28-.49.46.3.95c.08.24.16.49.26.74h0c-.23-.11-.43-.2-.71-.31l-.93-.37Z" transform="translate(64.84 135.41)"/>
    <path id="Path_13999" data-name="Path 13999" d="M287.37,167.68l.29-.58,2.71,1.35.66-1.31.49.24-.95,1.9Z" transform="translate(-58 50)"/>
    <path id="Path_14000" data-name="Path 14000" d="M167.75,83.91l-3.26-1.63.32-.63h0L167.52,83l.66-1.32.54.27h0Zm-3.19-1.65,3.16,1.58.93-1.86-.44-.22-.66,1.32-2.72-1.36Z" transform="translate(64.84 135.41)"/>
    <path id="Path_14001" data-name="Path 14001" d="M290.89,163.56l-.14,1.35,1.04.11.16-1.5.54.05-.23,2.15-3.57-.38.22-2.07.54.06-.15,1.42.92.1.14-1.34Z" transform="translate(-58 50)"/>
    <path id="Path_14002" data-name="Path 14002" d="M151.65,63.2s-.59-6.3,4.35-9.2a5.09,5.09,0,0,1,4.09-.81s2.88.61-.37,7.24c0,0-1.4,2.53-2.44,2.78a48.367,48.367,0,0,1,1.43-6.69A1.88,1.88,0,0,0,156.66,54h-.06s-2.91,9-2.89,14.33v.57a2.31,2.31,0,0,0,2.74,1.87l.17-4.36s2.07-1.92,3.08-1.38a3.59,3.59,0,0,1-.49,3.3,7.27,7.27,0,0,1-6.7,4l.05.59s.49,1.43,3,1.33h1.33a8.18,8.18,0,0,0,5.34-5.37,6.67,6.67,0,0,0,.16-2.2,7.9,7.9,0,0,1-.13-1c-.06-.65-.47-1.67-2.35-2.09,0,0,4.13-4.58,3.91-7.24v-1a4.63,4.63,0,0,0-.53-2.19,3.7,3.7,0,0,0-2.91-2H158.3s-4.43.13-7.92,5.37A9.94,9.94,0,0,0,149,60.45v1.7a1.13,1.13,0,0,0,.81,1Z" transform="translate(64.84 135.41)" fill="#fff"/>
    <path id="Path_14003" data-name="Path 14003" d="M144,42.78a5.91,5.91,0,0,1,1.16-.09,2,2,0,0,1,1.25.28.9.9,0,0,1,.46.81,1,1,0,0,1-.73.95h0a1.14,1.14,0,0,1,.46,2,2.43,2.43,0,0,1-1.62.41,7,7,0,0,1-1-.06Zm.79,1.72h.41c.55,0,.86-.26.86-.63s-.31-.59-.81-.59a2.18,2.18,0,0,0-.46,0Zm0,2h.42c.52,0,1-.2,1-.74s-.44-.71-1-.71h-.4Z" transform="translate(64.84 135.41)" fill="#fff"/>
    <path id="Path_14004" data-name="Path 14004" d="M150.35,45.86,150,47.1h-.82l1.4-4.38h1L153,47.1h-.86l-.39-1.24Zm1.25-.61-.34-1.08c-.09-.26-.16-.56-.22-.81h0c-.06.25-.13.55-.2.81l-.34,1.08Z" transform="translate(64.84 135.41)" fill="#fff"/>
    <path id="Path_14005" data-name="Path 14005" d="M155.37,46.23a2.33,2.33,0,0,0,1.06.27c.52,0,.8-.24.8-.59s-.22-.53-.78-.73c-.72-.26-1.18-.64-1.18-1.27a1.412,1.412,0,0,1,1.55-1.26,2.28,2.28,0,0,1,1.05.22l-.2.64a1.88,1.88,0,0,0-.87-.21c-.5,0-.72.28-.72.53s.25.49.83.72c.76.29,1.13.67,1.13,1.3s-.53,1.31-1.66,1.31a2.63,2.63,0,0,1-1.18-.27Z" transform="translate(64.84 135.41)" fill="#fff"/>
    <path id="Path_14006" data-name="Path 14006" d="M285.84,130.56h-1.65v1.29h1.85v.66h-2.65v-4.38h2.55v.65h-1.75v1.13h1.65Z" transform="translate(-58 50)" fill="#fff"/>
    <path id="Path_14007" data-name="Path 14007" d="M169.39,45.31c0-.57-.06-1.25,0-1.84h0c-.14.53-.33,1.13-.52,1.68L168.16,47h-.61L167,45.17c-.17-.56-.32-1.15-.44-1.7h0a14.86,14.86,0,0,1-.08,1.87l-.1,1.76h-.75l.3-4.38h1.05l.57,1.76c.16.51.29,1,.4,1.52h0c.12-.48.27-1,.44-1.53l.6-1.75h1l.25,4.38h-.78Z" transform="translate(64.84 135.41)" fill="#fff"/>
  </g>
</svg>
